<svg width="1299.113" height="185.69299999999998" xmlns="http://www.w3.org/2000/svg">

 <g>
  <title>background</title>
  <rect fill="none" id="canvas_background" height="187.693" width="1301.113" y="-1" x="-1"/>
 </g>
 <g>
  <title>Layer 1</title>
  <g id="Grupo_3406">
   <path fill="#206666" d="m0.85932,189.24639c-3.0657,-29.96076 -7.636,-84.91931 -7.636,-84.91931s-6.18167,-86.26698 7.55927,-84.44093c70.12188,9.31942 148.58026,33.51982 231.87574,43.73338c107.0079,13.1224 212.61291,26.0379 315.85622,22.65555c11.43267,-0.37481 36.56742,-6.22833 48.00433,-6.97018c3.86939,-0.25131 31.56449,0.27252 35.20544,-0.01568c138.86215,-11.0052 368.72998,-17.97259 499.78512,-16.16478c50.7289,3.10404 85.83605,7.10484 131.3028,13.8355s50.57509,13.09331 50.57509,13.09331l0.04395,96.97276s-1169.20879,9.64898 -1312.57196,2.22036z" id="Caminho_11207"/>
   <g id="Camada_2">
    <g id="OBJECTS">
     <path fill-rule="evenodd" fill="#f9c001" d="m464.67659,96.53858c233.018,-0.747 522.736,-50.032 772.771,-23.455c-238.064,-44.2 -545.717,3.114 -781.175,-1.1c-203.802,-3.639 -375.364,-46.076 -460.989,-71.555l0,39.129c103.329,24.874 276.122,57.559 469.393,56.981z" id="Caminho_271"/>
    </g>
   </g>
  </g>
 </g>
</svg>