<svg xmlns="http://www.w3.org/2000/svg" xmlns:xlink="http://www.w3.org/1999/xlink" width="1050" height="207" viewBox="0 0 1050 207">
  <defs>
    <clipPath id="clip-path">
      <rect id="Ret칙ngulo_2922" data-name="Ret칙ngulo 2922" width="1050" height="207" transform="translate(396 -2704)" fill="#fff"/>
    </clipPath>
  </defs>
  <g id="Grupo_de_m치scara_9" data-name="Grupo de m치scara 9" transform="translate(-396 2704)" clip-path="url(#clip-path)">
    <path id="Caminho_15079" data-name="Caminho 15079" d="M216.532-2.1s98.212,41.763,185.841,159.745,87.679,258.882,251.346,464.622,259.718,313.8-189.586,515.38c-25.61,11.49,145.018-174.735,145.018-174.735L107.777,276.235-1.179,120.629Z" transform="matrix(-0.574, 0.819, -0.819, -0.574, 1626.71, -2740.942)" fill="#ff8902"/>
    <path id="Caminho_15080" data-name="Caminho 15080" d="M216.532-2.1s98.212,41.763,185.841,159.745,87.679,258.882,251.346,464.622,259.718,313.8-189.586,515.38c-25.61,11.49,145.018-174.735,145.018-174.735L107.777,276.235-1.179,120.629Z" transform="matrix(-0.574, 0.819, -0.819, -0.574, 1688.298, -2755.942)" fill="#018194"/>
  </g>
</svg>
