<svg xmlns="http://www.w3.org/2000/svg" width="1326.113" height="211.693" viewBox="0 0 1326.113 211.693">
  <g id="Grupo_3406" data-name="Grupo 3406" transform="translate(19.426 -3915.42)">
    <path id="Caminho_11207" data-name="Caminho 11207" d="M1312.192,2.455c3.574,29.9,9.077,84.765,9.077,84.765s7.646,86.137-6.122,84.545c-70.26-8.125-149.107-30.985-232.552-39.78-107.2-11.3-212.994-22.417-316.15-17.281-11.423.569-36.451,6.848-47.872,7.784-3.864.317-31.56.264-35.195.614-138.635,13.362-368.318,24.234-499.366,24.654-50.767-2.241-85.932-5.644-131.5-11.6S1.729,123.926,1.729,123.926L.037,26.982S1168.744-2.535,1312.192,2.455Z" transform="matrix(-1, -0.017, 0.017, -1, 1303.726, 4129)" fill="#206666"/>
    <g id="Camada_2" data-name="Camada 2" transform="translate(-14 3915.42)">
      <g id="OBJECTS">
        <path id="Caminho_271" data-name="Caminho 271" d="M469.393,96.1c233.018-.747,522.736-50.032,772.771-23.455-238.064-44.2-545.717,3.114-781.175-1.1C257.187,67.906,85.625,25.469,0-.01V39.119C103.329,63.993,276.122,96.678,469.393,96.1Z" transform="translate(0 0.01)" fill="#f9c001" fill-rule="evenodd"/>
      </g>
    </g>
  </g>
</svg>
