<?xml version="1.0" encoding="UTF-8" standalone="no"?>
<svg
   xmlns:dc="http://purl.org/dc/elements/1.1/"
   xmlns:cc="http://creativecommons.org/ns#"
   xmlns:rdf="http://www.w3.org/1999/02/22-rdf-syntax-ns#"
   xmlns:svg="http://www.w3.org/2000/svg"
   xmlns="http://www.w3.org/2000/svg"
   xmlns:sodipodi="http://sodipodi.sourceforge.net/DTD/sodipodi-0.dtd"
   xmlns:inkscape="http://www.inkscape.org/namespaces/inkscape"
   width="1299.113"
   height="185.69299999999998"
   version="1.1"
   id="svg150"
   sodipodi:docname="background-footer2.svg"
   inkscape:version="0.92.3 (2405546, 2018-03-11)">
  <metadata
     id="metadata156">
    <rdf:RDF>
      <cc:Work
         rdf:about="">
        <dc:format>image/svg+xml</dc:format>
        <dc:type
           rdf:resource="http://purl.org/dc/dcmitype/StillImage" />
      </cc:Work>
    </rdf:RDF>
  </metadata>
  <defs
     id="defs154" />
  <sodipodi:namedview
     pagecolor="#ffffff"
     bordercolor="#666666"
     borderopacity="1"
     objecttolerance="10"
     gridtolerance="10"
     guidetolerance="10"
     inkscape:pageopacity="0"
     inkscape:pageshadow="2"
     inkscape:window-width="1366"
     inkscape:window-height="705"
     id="namedview152"
     showgrid="false"
     inkscape:zoom="0.87087945"
     inkscape:cx="667.4114"
     inkscape:cy="103.9002"
     inkscape:window-x="-8"
     inkscape:window-y="-8"
     inkscape:window-maximized="1"
     inkscape:current-layer="Grupo_3406" />
  <g
     id="g139">
    <title
       id="title136">background</title>
    <rect
       fill="none"
       id="canvas_background"
       height="187.693"
       width="1301.113"
       y="-1"
       x="-1" />
  </g>
  <g
     id="g148">
    <title
       id="title141">Layer 1</title>
    <g
       id="Grupo_3406">
      <path
         d="m 0.85932,189.24639 c -3.0657,-29.96076 -0.74641271,-80.32625 -0.74641271,-80.32625 0,0 -18.81258029,-98.897892 -5.07164009,-97.071842 C 65.163147,21.167718 149.36285,53.40597 232.65833,63.61953 c 107.0079,13.1224 106.97257,11.110461 210.21588,7.728111 11.43267,-0.37481 145.60682,-5.821916 145.60682,-5.821916 0,0 71.75375,-0.875744 75.3947,-1.163944 159.53091,7.367033 142.52186,-21.417384 279.31833,-35.685277 126.51434,-11.823399 139.80454,-13.563923 292.05984,9.242441 45.4551,6.808733 83.8748,-8.723716 83.8748,-8.723716 l -5.6974,157.830781 c 0,0 -1169.20881,9.64898 -1312.57198,2.22036 z"
         id="Caminho_11207"
         inkscape:connector-curvature="0"
         style="fill:#018194"
         sodipodi:nodetypes="ccccccccscccc" />
    </g>
  </g>
</svg>
