<?xml version="1.0" encoding="UTF-8" standalone="no"?>
<svg
   xmlns:dc="http://purl.org/dc/elements/1.1/"
   xmlns:cc="http://creativecommons.org/ns#"
   xmlns:rdf="http://www.w3.org/1999/02/22-rdf-syntax-ns#"
   xmlns:svg="http://www.w3.org/2000/svg"
   xmlns="http://www.w3.org/2000/svg"
   xmlns:sodipodi="http://sodipodi.sourceforge.net/DTD/sodipodi-0.dtd"
   xmlns:inkscape="http://www.inkscape.org/namespaces/inkscape"
   width="1344.245"
   height="588.17731"
   viewBox="0 0 1344.245 588.17732"
   version="1.1"
   id="svg3997"
   sodipodi:docname="background-propriedade-2.svg"
   inkscape:export-filename="/opt/lampp/htdocs/Agencia/img/background-propriedade.png"
   inkscape:export-xdpi="96"
   inkscape:export-ydpi="96"
   inkscape:version="0.92.5 (2060ec1f9f, 2020-04-08)">
  <metadata
     id="metadata4001">
    <rdf:RDF>
      <cc:Work
         rdf:about="">
        <dc:format>image/svg+xml</dc:format>
        <dc:type
           rdf:resource="http://purl.org/dc/dcmitype/StillImage" />
        <dc:title />
      </cc:Work>
    </rdf:RDF>
  </metadata>
  <sodipodi:namedview
     pagecolor="#ffffff"
     bordercolor="#666666"
     borderopacity="1"
     objecttolerance="10"
     gridtolerance="10"
     guidetolerance="10"
     inkscape:pageopacity="0"
     inkscape:pageshadow="2"
     inkscape:window-width="1366"
     inkscape:window-height="718"
     id="namedview3999"
     showgrid="false"
     inkscape:snap-global="false"
     inkscape:zoom="1.3371818"
     inkscape:cx="140.74191"
     inkscape:cy="482.16974"
     inkscape:window-x="0"
     inkscape:window-y="0"
     inkscape:window-maximized="1"
     inkscape:current-layer="svg3997" />
  <defs
     id="defs3989">
    <clipPath
       id="clip-path">
      <rect
         id="Ret창ngulo_2917"
         data-name="Ret창ngulo 2917"
         width="1339.299"
         height="289"
         x="0"
         y="0"
         style="fill:none" />
    </clipPath>
    <clipPath
       id="clip-path-2">
      <rect
         id="Ret창ngulo_2916"
         data-name="Ret창ngulo 2916"
         width="1289.827"
         height="289"
         x="0"
         y="0"
         style="fill:none" />
    </clipPath>
  </defs>
  <g
     id="Grupo_3666"
     data-name="Grupo 3666"
     transform="translate(22.727654,-1784.7305)">
    <g
       id="Grupo_3424"
       data-name="Grupo 3424"
       transform="rotate(169,575.41673,970.39226)"
       clip-path="url(#clip-path)">
      <path
         id="Caminho_14672"
         data-name="Caminho 14672"
         d="m 1402.743,208.652 c -46.536,15.164 -99.854,18.914 -133.848,18.973 -64.265,0.111 -113.549,-13.481 -149.515,-30.1 -28.409,-13.134 -55.4,-26.578 -79.777,-40.6 C 979.571,122.618 929.666,119.273 905.113,115.981 833.779,106.487 688.076,117.273 583.79,100.736 376.724,67.9 334.619,-12.311 0,1.606"
         transform="translate(-39.888,2.92)"
         stroke-miterlimit="10"
         inkscape:connector-curvature="0"
         style="fill:none;stroke:#f9c001;stroke-width:3;stroke-miterlimit:10" />
    </g>
    <path
       id="That_s_enough_"
       data-name="That's enough!"
       d="M 59.459,588.635 102.5,776.8 c 0,0 -14.474,48.466 8.928,38.671 a 1049.719,1049.719 0 0 1 188.4,-58.088 c 132.241,-27.4 209.847,-9.232 367.633,-41.928 157.786,-32.696 287.3,-143.19 513.765,-187.7 226.465,-44.51 264.519,0.219 264.519,0.219 L 1388.106,327.874 1315.045,11.4 c 0,0 -164.637,-46.97 -366.109,49.79 C 900.908,84.256 791.251,170.3 643.086,199.215 494.921,228.13 445.393,219.56 345.914,215.486 101.5,205.476 0,331.09 0,331.09 Z"
       transform="rotate(-167,776.13655,1244.2785)"
       inkscape:connector-curvature="0"
       style="opacity:0.25;fill:#f9c001" />
    <g
       id="Grupo_3423"
       data-name="Grupo 3423"
       transform="matrix(0.985,-0.174,0.174,0.985,-14.668,2320.665)"
       clip-path="url(#clip-path-2)">
      <path
         id="Caminho_14671"
         data-name="Caminho 14671"
         d="m 1350.926,208.652 c -44.817,15.164 -96.165,18.914 -128.9,18.973 -61.891,0.111 -109.355,-13.481 -143.992,-30.1 -27.36,-13.134 -53.354,-26.578 -76.83,-40.6 -57.815,-34.307 -105.876,-37.652 -129.522,-40.944 -68.7,-9.494 -209.02,1.292 -309.454,-15.245 C 362.808,67.9 322.259,-12.311 0,1.606"
         transform="translate(-38.415,2.92)"
         stroke-miterlimit="10"
         inkscape:connector-curvature="0"
         style="fill:none;stroke:#f9c001;stroke-width:3;stroke-miterlimit:10" />
    </g>
  </g>
  <path
     style="fill:none"
     d="M 0,21.313481 V 588.1773 H 1344.245 V 0 H 0 Z"
     id="path79"
     inkscape:connector-curvature="0" />
</svg>
