<svg xmlns="http://www.w3.org/2000/svg" xmlns:xlink="http://www.w3.org/1999/xlink" width="140.75" height="23.805" viewBox="0 0 140.75 23.805">
  <defs>
    <linearGradient id="linear-gradient" y1="0.5" x2="1.025" y2="0.5" gradientUnits="objectBoundingBox">
      <stop offset="0" stop-color="#fff"/>
      <stop offset="0.52" stop-color="#fdfdfd"/>
      <stop offset="0.78" stop-color="#f5f5f5"/>
      <stop offset="0.98" stop-color="#e8e8e8"/>
      <stop offset="1" stop-color="#e6e6e6"/>
    </linearGradient>
  </defs>
  <g id="Grupo_3666" data-name="Grupo 3666" transform="translate(-8.328)">
    <path id="Caminho_11155" data-name="Caminho 11155" d="M994.588,178.5H994a17.6,17.6,0,0,1,0,23.768h0l71.187.037c5.156,0,9.338-5.326,9.34-11.9h0c0-6.574-4.182-11.9-9.34-11.9Z" transform="translate(-925.449 -178.5)" fill="url(#linear-gradient)"/>
    <path id="Caminho_17375" data-name="Caminho 17375" d="M994.566,178.5H994a17.535,17.535,0,0,1,0,23.331h0l68.523.037c4.964,0,8.988-5.228,8.99-11.68h0c0-6.454-4.025-11.685-8.99-11.685Z" transform="translate(1079.841 202.305) rotate(180)" fill="url(#linear-gradient)"/>
  </g>
</svg>
