<svg xmlns="http://www.w3.org/2000/svg" xmlns:xlink="http://www.w3.org/1999/xlink" width="346.333" height="346.333" viewBox="0 0 346.333 346.333">
  <defs>
    <clipPath id="clip-path">
      <circle id="Elipse_1314" data-name="Elipse 1314" cx="122.447" cy="122.447" r="122.447" transform="translate(473.525 683.785) rotate(-45)" fill="none"/>
    </clipPath>
  </defs>
  <g id="Grupo_3335" data-name="Grupo 3335" transform="translate(-473.525 -510.619)" opacity="0.25" clip-path="url(#clip-path)">
    <rect id="Retângulo_2383" data-name="Retângulo 2383" width="591.798" height="5.331" transform="translate(257.182 878.421) rotate(-45.42)" fill="#206666"/>
    <rect id="Retângulo_2384" data-name="Retângulo 2384" width="591.798" height="5.331" transform="translate(273.988 878.436) rotate(-45.42)" fill="#206666"/>
    <rect id="Retângulo_2385" data-name="Retângulo 2385" width="591.798" height="5.331" transform="translate(290.795 878.423) rotate(-45.42)" fill="#206666"/>
    <rect id="Retângulo_2386" data-name="Retângulo 2386" width="591.798" height="5.331" transform="matrix(0.702, -0.712, 0.712, 0.702, 307.645, 878.423)" fill="#206666"/>
    <rect id="Retângulo_2387" data-name="Retângulo 2387" width="591.798" height="5.331" transform="translate(324.407 878.434) rotate(-45.42)" fill="#206666"/>
    <rect id="Retângulo_2388" data-name="Retângulo 2388" width="591.798" height="5.331" transform="matrix(0.702, -0.712, 0.712, 0.702, 341.262, 878.42)" fill="#206666"/>
    <rect id="Retângulo_2389" data-name="Retângulo 2389" width="591.798" height="5.331" transform="translate(358.029 878.435) rotate(-45.42)" fill="#206666"/>
    <rect id="Retângulo_2390" data-name="Retângulo 2390" width="591.798" height="5.331" transform="translate(374.835 878.441) rotate(-45.42)" fill="#206666"/>
    <rect id="Retângulo_2391" data-name="Retângulo 2391" width="591.798" height="5.331" transform="matrix(0.702, -0.712, 0.712, 0.702, 391.675, 878.412)" fill="#206666"/>
    <rect id="Retângulo_2392" data-name="Retângulo 2392" width="591.798" height="5.331" transform="translate(408.448 878.443) rotate(-45.42)" fill="#206666"/>
    <rect id="Retângulo_2393" data-name="Retângulo 2393" width="591.798" height="5.331" transform="translate(425.254 878.439) rotate(-45.42)" fill="#206666"/>
    <rect id="Retângulo_2394" data-name="Retângulo 2394" width="591.798" height="5.331" transform="translate(442.06 878.425) rotate(-45.42)" fill="#206666"/>
    <rect id="Retângulo_2395" data-name="Retângulo 2395" width="591.798" height="5.331" transform="translate(458.873 878.433) rotate(-45.42)" fill="#206666"/>
    <rect id="Retângulo_2396" data-name="Retângulo 2396" width="591.798" height="5.331" transform="matrix(0.702, -0.712, 0.712, 0.702, 475.712, 878.413)" fill="#206666"/>
    <rect id="Retângulo_2397" data-name="Retângulo 2397" width="591.798" height="5.331" transform="translate(492.485 878.426) rotate(-45.42)" fill="#206666"/>
    <rect id="Retângulo_2398" data-name="Retângulo 2398" width="591.798" height="5.331" transform="translate(509.292 878.431) rotate(-45.42)" fill="#206666"/>
    <rect id="Retângulo_2399" data-name="Retângulo 2399" width="591.798" height="5.331" transform="translate(526.098 878.427) rotate(-45.42)" fill="#206666"/>
    <rect id="Retângulo_2400" data-name="Retângulo 2400" width="591.798" height="5.331" transform="translate(542.904 878.442) rotate(-45.42)" fill="#206666"/>
    <rect id="Retângulo_2401" data-name="Retângulo 2401" width="591.798" height="5.331" transform="translate(559.71 878.438) rotate(-45.42)" fill="#206666"/>
    <rect id="Retângulo_2402" data-name="Retângulo 2402" width="591.798" height="5.331" transform="translate(576.526 878.434) rotate(-45.42)" fill="#206666"/>
    <rect id="Retângulo_2403" data-name="Retângulo 2403" width="591.798" height="5.331" transform="translate(593.332 878.44) rotate(-45.42)" fill="#206666"/>
    <rect id="Retângulo_2404" data-name="Retângulo 2404" width="591.798" height="5.331" transform="translate(610.138 878.436) rotate(-45.42)" fill="#206666"/>
    <rect id="Retângulo_2405" data-name="Retângulo 2405" width="591.798" height="5.331" transform="translate(626.945 878.441) rotate(-45.42)" fill="#206666"/>
    <rect id="Retângulo_2406" data-name="Retângulo 2406" width="591.798" height="5.331" transform="translate(643.751 878.428) rotate(-45.42)" fill="#206666"/>
  </g>
</svg>
