<svg width="1249.553" height="169.115" xmlns="http://www.w3.org/2000/svg">
 <defs>
  <clipPath id="clip-path">
   <rect x="-8.22499" y="-3628.40056" fill="none" height="289" width="1289.827" id="Retângulo_2920"/>
  </clipPath>
 </defs>
 <g>
  <title>background</title>
  <rect fill="none" id="canvas_background" height="171.115" width="1251.553" y="-1" x="-1"/>
 </g>
 <g>
  <title>Layer 1</title>
  <g id="Grupo_3667">
   <path fill="#f9c001" transform="rotate(-171 1272.9210205078125,345.4224548339843) " d="m1317.653,877.11244l13.1,82.715s88.926,37.14 263.913,-1.451s249.332,-18.78 462.621,-55.453s163.757,-50.236 390.535,-91.239s223.12,8.775 223.12,8.775l-38.688,-193.126l-36.114,-279.157s-168.376,-24.713 -367.035,58.133c-47.357,19.749 -155.363,93.648 -301.611,118.113s-239.614,5.611 -337.89,1.77c-241.461,-9.434 -316.683,68.496 -316.683,68.496l44.732,282.424z" id="That_s_enough_"/>
   <g id="Grupo_3444">
    <g id="Camada_2">
     <g id="OBJECTS">
      <path fill-rule="evenodd" fill="#fff" d="m1279.27701,23.40836l0,-42.712l-1302.071,0l0,124.147c89.025,-27.872 267.618,-74.3 479.733,-78.306c246.1,-4.628 569.548,48 818.078,-1.651c1.662,-0.332 2.265,-1.065 4.26,-1.478z" id="Caminho_270"/>
     </g>
    </g>
    <g id="Camada_2-2">
     <g id="OBJECTS-2">
      <path fill-rule="evenodd" fill="#206666" d="m457.97801,5.24136c238.667,0.817 535.409,54.748 791.5,25.666c-243.836,48.366 -558.946,-3.407 -800.112,1.2c-208.738,3.987 -384.46,50.425 -472.16,78.306l0,-42.818c105.834,-27.219 282.816,-62.985 480.772,-62.354z" id="Caminho_271"/>
     </g>
    </g>
   </g>
   <g clip-path="url(#clip-path)" transform="matrix(-0.985,-0.174,0.174,-0.985,1250.024,3941.274) " id="Grupo_3445">
    <path stroke-width="3" stroke-miterlimit="10" stroke="#f9c001" fill="none" d="m1951.63412,3648.18237c-44.817,-15.164 -96.165,-18.914 -128.903,-18.974c-61.891,-0.111 -109.355,13.481 -143.992,30.1c-27.36,13.134 -53.354,26.578 -76.83,40.6c-57.815,34.307 -105.876,37.652 -129.522,40.944c-68.7,9.494 -209.02,-1.292 -309.454,15.245c-199.417,32.835 -239.966,113.048 -562.225,99.131" id="Caminho_15074"/>
   </g>
  </g>
 </g>
</svg>